<?xml version="1.0" encoding="UTF-8" standalone="no"?>
<svg
   xmlns:dc="http://purl.org/dc/elements/1.1/"
   xmlns:cc="http://creativecommons.org/ns#"
   xmlns:rdf="http://www.w3.org/1999/02/22-rdf-syntax-ns#"
   xmlns:svg="http://www.w3.org/2000/svg"
   xmlns="http://www.w3.org/2000/svg"
   xmlns:sodipodi="http://sodipodi.sourceforge.net/DTD/sodipodi-0.dtd"
   xmlns:inkscape="http://www.inkscape.org/namespaces/inkscape"
   viewBox="0 0 512 512"
   version="1.1"
   id="svg4"
   sodipodi:docname="_ionicons_svg_ios-bookmarks.svg"
   inkscape:version="0.92.3 (2405546, 2018-03-11)">
  <metadata
     id="metadata10">
    <rdf:RDF>
      <cc:Work
         rdf:about="">
        <dc:format>image/svg+xml</dc:format>
        <dc:type
           rdf:resource="http://purl.org/dc/dcmitype/StillImage" />
      </cc:Work>
    </rdf:RDF>
  </metadata>
  <defs
     id="defs8" />
  <sodipodi:namedview
     pagecolor="#ffffff"
     bordercolor="#666666"
     borderopacity="1"
     objecttolerance="10"
     gridtolerance="10"
     guidetolerance="10"
     inkscape:pageopacity="0"
     inkscape:pageshadow="2"
     inkscape:window-width="763"
     inkscape:window-height="480"
     id="namedview6"
     showgrid="false"
     inkscape:zoom="0.4609375"
     inkscape:cx="256"
     inkscape:cy="256"
     inkscape:window-x="0"
     inkscape:window-y="0"
     inkscape:window-maximized="0"
     inkscape:current-layer="svg4" />
  <path
     d="M416 32v127.9l-22.9-14.5-9.1-6.4-9.1 6.4-22.9 14.5V32h-41.4c-22.5.2-40.6 18.8-40.6 41.4v313.2c0 7.5-5.8 14-13.3 14.4-8 .4-14.7-6-14.7-14V73.4c0-22.6-18.1-41.2-40.6-41.4H95.1C64.8 32 40 56.8 40 87.1v289.8c0 30.3 24.8 55.1 55.1 55.1l108-.1c4.2.1 8.3.6 12.2 1.4 15.3 3.1 26.8 16.6 26.6 32.2-.1 7.2 5.2 13.6 12.4 14.4 8.5.9 15.7-5.7 15.6-14.1-.2-15.8 11.4-29.4 26.9-32.5 3.8-.8 7.9-1.2 12-1.3l108 .1c30.3 0 55.1-24.8 55.1-55.1V87.1C472 56.8 446.3 32 416 32z"
     id="path2"
     style="fill:none;fill-opacity:1;stroke:#f0e711;stroke-opacity:1;stroke-width:15;stroke-miterlimit:4;stroke-dasharray:none" />
</svg>
