<?xml version="1.0" encoding="UTF-8" standalone="no"?>
<svg
   xmlns:dc="http://purl.org/dc/elements/1.1/"
   xmlns:cc="http://creativecommons.org/ns#"
   xmlns:rdf="http://www.w3.org/1999/02/22-rdf-syntax-ns#"
   xmlns:svg="http://www.w3.org/2000/svg"
   xmlns="http://www.w3.org/2000/svg"
   xmlns:sodipodi="http://sodipodi.sourceforge.net/DTD/sodipodi-0.dtd"
   xmlns:inkscape="http://www.inkscape.org/namespaces/inkscape"
   viewBox="0 0 512 512"
   version="1.1"
   id="svg918"
   sodipodi:docname="_ionicons_svg_ios-paper.svg"
   inkscape:version="0.92.3 (2405546, 2018-03-11)">
  <metadata
     id="metadata924">
    <rdf:RDF>
      <cc:Work
         rdf:about="">
        <dc:format>image/svg+xml</dc:format>
        <dc:type
           rdf:resource="http://purl.org/dc/dcmitype/StillImage" />
      </cc:Work>
    </rdf:RDF>
  </metadata>
  <defs
     id="defs922" />
  <sodipodi:namedview
     pagecolor="#ffffff"
     bordercolor="#666666"
     borderopacity="1"
     objecttolerance="10"
     gridtolerance="10"
     guidetolerance="10"
     inkscape:pageopacity="0"
     inkscape:pageshadow="2"
     inkscape:window-width="763"
     inkscape:window-height="480"
     id="namedview920"
     showgrid="false"
     inkscape:zoom="0.4609375"
     inkscape:cx="256"
     inkscape:cy="256"
     inkscape:window-x="0"
     inkscape:window-y="0"
     inkscape:window-maximized="1"
     inkscape:current-layer="svg918" />
  <path
     d="M124 80v322c0 7.7-6.3 14-14 14s-14-6.3-14-14V112H80c-17.7 0-32 14.3-32 32v288c0 17.7 14.3 32 32 32h353.1c17 0 30.9-13.8 30.9-30.9V80c0-17.7-14.3-32-32-32l-278 2c-17.7 0-30 12.3-30 30zm66 32h84c7.7 0 14 6.3 14 14s-6.3 14-14 14h-84c-7.7 0-14-6.3-14-14s6.3-14 14-14zm0 160h148c7.7 0 14 6.3 14 14s-6.3 14-14 14H190c-7.7 0-14-6.3-14-14s6.3-14 14-14zm196 108H190c-7.7 0-14-6.3-14-14s6.3-14 14-14h196c7.7 0 14 6.3 14 14s-6.3 14-14 14zm0-160H190c-7.7 0-14-6.3-14-14s6.3-14 14-14h196c7.7 0 14 6.3 14 14s-6.3 14-14 14z"
     id="path916"
     style="fill:none;stroke:#68f7ff;stroke-opacity:0.98617512;stroke-width:15;stroke-miterlimit:4;stroke-dasharray:none" />
</svg>
